<mxfile host="app.diagrams.net" agent="Mozilla/5.0 (Windows NT 10.0; Win64; x64) AppleWebKit/537.36 (KHTML, like Gecko) Chrome/130.0.0.0 Safari/537.36" version="24.8.0">
  <diagram id="R2lEEEUBdFMjLlhIrx00" name="Page-1">
    <mxGraphModel dx="6480" dy="2573" grid="1" gridSize="10" guides="1" tooltips="1" connect="1" arrows="1" fold="1" page="1" pageScale="1" pageWidth="850" pageHeight="1100" math="0" shadow="0" extFonts="Permanent Marker^https://fonts.googleapis.com/css?family=Permanent+Marker">
      <root>
        <mxCell id="0" />
        <mxCell id="1" parent="0" />
        <mxCell id="tRDRYUQzHFQAWp7xfoaw-8" value="Person" style="whiteSpace=wrap;html=1;align=center;" parent="1" vertex="1">
          <mxGeometry x="70" y="365" width="80" height="40" as="geometry" />
        </mxCell>
        <mxCell id="tRDRYUQzHFQAWp7xfoaw-20" value="Address" style="ellipse;whiteSpace=wrap;html=1;align=center;" parent="1" vertex="1">
          <mxGeometry x="-50" y="425" width="100" height="40" as="geometry" />
        </mxCell>
        <mxCell id="tRDRYUQzHFQAWp7xfoaw-21" value="Email" style="ellipse;whiteSpace=wrap;html=1;align=center;" parent="1" vertex="1">
          <mxGeometry x="-50" y="365" width="100" height="40" as="geometry" />
        </mxCell>
        <mxCell id="tRDRYUQzHFQAWp7xfoaw-22" value="DateOfBirth" style="ellipse;whiteSpace=wrap;html=1;align=center;" parent="1" vertex="1">
          <mxGeometry x="-50" y="305" width="100" height="40" as="geometry" />
        </mxCell>
        <mxCell id="tRDRYUQzHFQAWp7xfoaw-23" value="First Name" style="ellipse;whiteSpace=wrap;html=1;align=center;" parent="1" vertex="1">
          <mxGeometry x="170" y="425" width="100" height="40" as="geometry" />
        </mxCell>
        <mxCell id="tRDRYUQzHFQAWp7xfoaw-24" value="Second Name" style="ellipse;whiteSpace=wrap;html=1;align=center;" parent="1" vertex="1">
          <mxGeometry x="170" y="365" width="100" height="40" as="geometry" />
        </mxCell>
        <mxCell id="tRDRYUQzHFQAWp7xfoaw-25" value="Last Name" style="ellipse;whiteSpace=wrap;html=1;align=center;" parent="1" vertex="1">
          <mxGeometry x="60" y="305" width="100" height="40" as="geometry" />
        </mxCell>
        <mxCell id="tRDRYUQzHFQAWp7xfoaw-26" value="Third Name" style="ellipse;whiteSpace=wrap;html=1;align=center;" parent="1" vertex="1">
          <mxGeometry x="170" y="305" width="100" height="40" as="geometry" />
        </mxCell>
        <mxCell id="tRDRYUQzHFQAWp7xfoaw-27" value="PERSON_ID" style="ellipse;whiteSpace=wrap;html=1;align=center;" parent="1" vertex="1">
          <mxGeometry x="170" y="475" width="100" height="40" as="geometry" />
        </mxCell>
        <mxCell id="tRDRYUQzHFQAWp7xfoaw-29" value="Phone" style="ellipse;shape=doubleEllipse;margin=3;whiteSpace=wrap;html=1;align=center;" parent="1" vertex="1">
          <mxGeometry x="-50" y="475" width="100" height="40" as="geometry" />
        </mxCell>
        <mxCell id="tRDRYUQzHFQAWp7xfoaw-40" value="" style="shape=singleArrow;direction=south;whiteSpace=wrap;html=1;" parent="1" vertex="1">
          <mxGeometry x="280" y="540" width="60" height="100" as="geometry" />
        </mxCell>
        <mxCell id="tRDRYUQzHFQAWp7xfoaw-41" value="USER" style="whiteSpace=wrap;html=1;align=center;" parent="1" vertex="1">
          <mxGeometry x="280" y="730" width="80" height="40" as="geometry" />
        </mxCell>
        <mxCell id="tRDRYUQzHFQAWp7xfoaw-44" value="Role" style="ellipse;whiteSpace=wrap;html=1;align=center;" parent="1" vertex="1">
          <mxGeometry x="160" y="670" width="100" height="40" as="geometry" />
        </mxCell>
        <mxCell id="tRDRYUQzHFQAWp7xfoaw-45" value="PERSON_ID" style="ellipse;whiteSpace=wrap;html=1;align=center;" parent="1" vertex="1">
          <mxGeometry x="380" y="790" width="100" height="40" as="geometry" />
        </mxCell>
        <mxCell id="tRDRYUQzHFQAWp7xfoaw-46" value="USERNAME" style="ellipse;whiteSpace=wrap;html=1;align=center;" parent="1" vertex="1">
          <mxGeometry x="380" y="730" width="100" height="40" as="geometry" />
        </mxCell>
        <mxCell id="tRDRYUQzHFQAWp7xfoaw-47" value="CreatedDate" style="ellipse;whiteSpace=wrap;html=1;align=center;" parent="1" vertex="1">
          <mxGeometry x="270" y="670" width="100" height="40" as="geometry" />
        </mxCell>
        <mxCell id="tRDRYUQzHFQAWp7xfoaw-48" value="PASSWORD" style="ellipse;whiteSpace=wrap;html=1;align=center;" parent="1" vertex="1">
          <mxGeometry x="380" y="670" width="100" height="40" as="geometry" />
        </mxCell>
        <mxCell id="tRDRYUQzHFQAWp7xfoaw-49" value="USER_ID" style="ellipse;whiteSpace=wrap;html=1;align=center;direction=west;strokeColor=default;shadow=1;" parent="1" vertex="1">
          <mxGeometry x="160" y="725" width="100" height="40" as="geometry" />
        </mxCell>
        <mxCell id="tRDRYUQzHFQAWp7xfoaw-51" value="" style="shape=singleArrow;direction=south;whiteSpace=wrap;html=1;" parent="1" vertex="1">
          <mxGeometry x="-130" y="550" width="60" height="100" as="geometry" />
        </mxCell>
        <mxCell id="tRDRYUQzHFQAWp7xfoaw-52" value="CUSTOMER" style="whiteSpace=wrap;html=1;align=center;" parent="1" vertex="1">
          <mxGeometry x="-130" y="735" width="80" height="40" as="geometry" />
        </mxCell>
        <mxCell id="tRDRYUQzHFQAWp7xfoaw-54" value="PERSON_ID" style="ellipse;whiteSpace=wrap;html=1;align=center;" parent="1" vertex="1">
          <mxGeometry x="-30" y="675" width="100" height="40" as="geometry" />
        </mxCell>
        <mxCell id="tRDRYUQzHFQAWp7xfoaw-56" value="CreatedDate" style="ellipse;whiteSpace=wrap;html=1;align=center;" parent="1" vertex="1">
          <mxGeometry x="-140" y="675" width="100" height="40" as="geometry" />
        </mxCell>
        <mxCell id="tRDRYUQzHFQAWp7xfoaw-58" value="CUSTOMER_ID" style="ellipse;whiteSpace=wrap;html=1;align=center;direction=west;strokeColor=default;shadow=1;" parent="1" vertex="1">
          <mxGeometry x="-250" y="675" width="100" height="40" as="geometry" />
        </mxCell>
        <mxCell id="tRDRYUQzHFQAWp7xfoaw-60" value="IsActive" style="ellipse;whiteSpace=wrap;html=1;align=center;" parent="1" vertex="1">
          <mxGeometry x="270" y="790" width="100" height="40" as="geometry" />
        </mxCell>
        <mxCell id="tRDRYUQzHFQAWp7xfoaw-62" value="IsActive" style="ellipse;whiteSpace=wrap;html=1;align=center;" parent="1" vertex="1">
          <mxGeometry x="-30" y="740" width="100" height="40" as="geometry" />
        </mxCell>
        <mxCell id="tRDRYUQzHFQAWp7xfoaw-73" value="HAVE" style="shape=rhombus;perimeter=rhombusPerimeter;whiteSpace=wrap;html=1;align=center;" parent="1" vertex="1">
          <mxGeometry x="-150" y="910" width="120" height="60" as="geometry" />
        </mxCell>
        <mxCell id="tRDRYUQzHFQAWp7xfoaw-74" value="" style="shape=singleArrow;direction=south;whiteSpace=wrap;html=1;" parent="1" vertex="1">
          <mxGeometry x="-120" y="790" width="60" height="100" as="geometry" />
        </mxCell>
        <mxCell id="tRDRYUQzHFQAWp7xfoaw-75" value="Account" style="whiteSpace=wrap;html=1;align=center;" parent="1" vertex="1">
          <mxGeometry x="-130" y="1180" width="80" height="40" as="geometry" />
        </mxCell>
        <mxCell id="tRDRYUQzHFQAWp7xfoaw-76" value="&lt;strong&gt;Currency&lt;/strong&gt;" style="ellipse;whiteSpace=wrap;html=1;align=center;" parent="1" vertex="1">
          <mxGeometry x="-250" y="1240" width="100" height="40" as="geometry" />
        </mxCell>
        <mxCell id="tRDRYUQzHFQAWp7xfoaw-77" value="Status" style="ellipse;whiteSpace=wrap;html=1;align=center;" parent="1" vertex="1">
          <mxGeometry x="-250" y="1180" width="100" height="40" as="geometry" />
        </mxCell>
        <mxCell id="tRDRYUQzHFQAWp7xfoaw-78" value="Created Date" style="ellipse;whiteSpace=wrap;html=1;align=center;" parent="1" vertex="1">
          <mxGeometry x="-250" y="1120" width="100" height="40" as="geometry" />
        </mxCell>
        <mxCell id="tRDRYUQzHFQAWp7xfoaw-79" value="Balance" style="ellipse;whiteSpace=wrap;html=1;align=center;" parent="1" vertex="1">
          <mxGeometry x="-30" y="1180" width="100" height="40" as="geometry" />
        </mxCell>
        <mxCell id="tRDRYUQzHFQAWp7xfoaw-80" value="AccountType_ID" style="ellipse;whiteSpace=wrap;html=1;align=center;" parent="1" vertex="1">
          <mxGeometry x="-30" y="1120" width="100" height="40" as="geometry" />
        </mxCell>
        <mxCell id="tRDRYUQzHFQAWp7xfoaw-81" value="AccountNumber" style="ellipse;whiteSpace=wrap;html=1;align=center;" parent="1" vertex="1">
          <mxGeometry x="-140" y="1120" width="100" height="40" as="geometry" />
        </mxCell>
        <mxCell id="tRDRYUQzHFQAWp7xfoaw-83" value="Customer_ID" style="ellipse;whiteSpace=wrap;html=1;align=center;" parent="1" vertex="1">
          <mxGeometry x="-30" y="1230" width="100" height="40" as="geometry" />
        </mxCell>
        <mxCell id="tRDRYUQzHFQAWp7xfoaw-105" value="" style="shape=singleArrow;direction=south;whiteSpace=wrap;html=1;" parent="1" vertex="1">
          <mxGeometry x="-120" y="990" width="60" height="100" as="geometry" />
        </mxCell>
        <mxCell id="tRDRYUQzHFQAWp7xfoaw-109" value="Logged By" style="shape=rhombus;perimeter=rhombusPerimeter;whiteSpace=wrap;html=1;align=center;" parent="1" vertex="1">
          <mxGeometry x="-160" y="1370" width="120" height="60" as="geometry" />
        </mxCell>
        <mxCell id="tRDRYUQzHFQAWp7xfoaw-110" value="" style="shape=singleArrow;direction=south;whiteSpace=wrap;html=1;" parent="1" vertex="1">
          <mxGeometry x="-130" y="1250" width="60" height="100" as="geometry" />
        </mxCell>
        <mxCell id="tRDRYUQzHFQAWp7xfoaw-111" value="" style="shape=singleArrow;direction=south;whiteSpace=wrap;html=1;" parent="1" vertex="1">
          <mxGeometry x="-130" y="1450" width="60" height="100" as="geometry" />
        </mxCell>
        <mxCell id="tRDRYUQzHFQAWp7xfoaw-112" value="Transaction" style="whiteSpace=wrap;html=1;align=center;" parent="1" vertex="1">
          <mxGeometry x="-150" y="1640" width="80" height="40" as="geometry" />
        </mxCell>
        <mxCell id="tRDRYUQzHFQAWp7xfoaw-113" value="LastUpadteDate" style="ellipse;whiteSpace=wrap;html=1;align=center;" parent="1" vertex="1">
          <mxGeometry x="-270" y="1700" width="100" height="40" as="geometry" />
        </mxCell>
        <mxCell id="tRDRYUQzHFQAWp7xfoaw-114" value="CreatedDate" style="ellipse;whiteSpace=wrap;html=1;align=center;" parent="1" vertex="1">
          <mxGeometry x="-270" y="1640" width="100" height="40" as="geometry" />
        </mxCell>
        <mxCell id="tRDRYUQzHFQAWp7xfoaw-115" value="Status" style="ellipse;whiteSpace=wrap;html=1;align=center;" parent="1" vertex="1">
          <mxGeometry x="-270" y="1580" width="100" height="40" as="geometry" />
        </mxCell>
        <mxCell id="tRDRYUQzHFQAWp7xfoaw-116" value="Account_ID" style="ellipse;whiteSpace=wrap;html=1;align=center;" parent="1" vertex="1">
          <mxGeometry x="-50" y="1700" width="100" height="40" as="geometry" />
        </mxCell>
        <mxCell id="tRDRYUQzHFQAWp7xfoaw-117" value="TransactionType" style="ellipse;whiteSpace=wrap;html=1;align=center;" parent="1" vertex="1">
          <mxGeometry x="-50" y="1640" width="100" height="40" as="geometry" />
        </mxCell>
        <mxCell id="tRDRYUQzHFQAWp7xfoaw-118" value="TransactionAmount" style="ellipse;whiteSpace=wrap;html=1;align=center;" parent="1" vertex="1">
          <mxGeometry x="-160" y="1580" width="100" height="40" as="geometry" />
        </mxCell>
        <mxCell id="tRDRYUQzHFQAWp7xfoaw-119" value="TransactioDate" style="ellipse;whiteSpace=wrap;html=1;align=center;" parent="1" vertex="1">
          <mxGeometry x="-50" y="1580" width="100" height="40" as="geometry" />
        </mxCell>
        <mxCell id="tRDRYUQzHFQAWp7xfoaw-120" value="Tranasction_ID" style="ellipse;whiteSpace=wrap;html=1;align=center;" parent="1" vertex="1">
          <mxGeometry x="-50" y="1760" width="100" height="45" as="geometry" />
        </mxCell>
        <mxCell id="tRDRYUQzHFQAWp7xfoaw-122" value="Customer_ID" style="ellipse;whiteSpace=wrap;html=1;align=center;" parent="1" vertex="1">
          <mxGeometry x="-270" y="1745" width="100" height="45" as="geometry" />
        </mxCell>
        <mxCell id="tRDRYUQzHFQAWp7xfoaw-123" value="De-Normalization." style="text;html=1;align=center;verticalAlign=middle;resizable=0;points=[];autosize=1;strokeColor=none;fillColor=none;" parent="1" vertex="1">
          <mxGeometry x="-400" y="1745" width="120" height="30" as="geometry" />
        </mxCell>
        <mxCell id="tRDRYUQzHFQAWp7xfoaw-124" value="loaning" style="shape=rhombus;perimeter=rhombusPerimeter;whiteSpace=wrap;html=1;align=center;" parent="1" vertex="1">
          <mxGeometry x="-510" y="665" width="120" height="60" as="geometry" />
        </mxCell>
        <mxCell id="tRDRYUQzHFQAWp7xfoaw-125" value="" style="shape=singleArrow;direction=west;whiteSpace=wrap;html=1;" parent="1" vertex="1">
          <mxGeometry x="-380" y="670" width="100" height="60" as="geometry" />
        </mxCell>
        <mxCell id="tRDRYUQzHFQAWp7xfoaw-126" value="" style="shape=singleArrow;direction=west;whiteSpace=wrap;html=1;" parent="1" vertex="1">
          <mxGeometry x="-620" y="665" width="100" height="60" as="geometry" />
        </mxCell>
        <mxCell id="tRDRYUQzHFQAWp7xfoaw-127" style="edgeStyle=orthogonalEdgeStyle;rounded=0;orthogonalLoop=1;jettySize=auto;html=1;exitX=0;exitY=0;exitDx=40;exitDy=39;exitPerimeter=0;entryX=0.2;entryY=0.25;entryDx=0;entryDy=0;entryPerimeter=0;" parent="1" source="tRDRYUQzHFQAWp7xfoaw-125" target="tRDRYUQzHFQAWp7xfoaw-125" edge="1">
          <mxGeometry relative="1" as="geometry" />
        </mxCell>
        <mxCell id="tRDRYUQzHFQAWp7xfoaw-128" value="Loan" style="whiteSpace=wrap;html=1;align=center;" parent="1" vertex="1">
          <mxGeometry x="-860" y="630" width="80" height="40" as="geometry" />
        </mxCell>
        <mxCell id="tRDRYUQzHFQAWp7xfoaw-129" value="TotalPayment" style="ellipse;whiteSpace=wrap;html=1;align=center;" parent="1" vertex="1">
          <mxGeometry x="-980" y="735" width="100" height="40" as="geometry" />
        </mxCell>
        <mxCell id="tRDRYUQzHFQAWp7xfoaw-130" value="Status" style="ellipse;whiteSpace=wrap;html=1;align=center;" parent="1" vertex="1">
          <mxGeometry x="-980" y="630" width="100" height="40" as="geometry" />
        </mxCell>
        <mxCell id="tRDRYUQzHFQAWp7xfoaw-132" value="Customer_ID" style="ellipse;whiteSpace=wrap;html=1;align=center;" parent="1" vertex="1">
          <mxGeometry x="-980" y="680.98" width="100" height="40" as="geometry" />
        </mxCell>
        <mxCell id="tRDRYUQzHFQAWp7xfoaw-133" value="Amount" style="ellipse;whiteSpace=wrap;html=1;align=center;" parent="1" vertex="1">
          <mxGeometry x="-760" y="675" width="100" height="40" as="geometry" />
        </mxCell>
        <mxCell id="tRDRYUQzHFQAWp7xfoaw-134" value="EndDate" style="ellipse;whiteSpace=wrap;html=1;align=center;" parent="1" vertex="1">
          <mxGeometry x="-770" y="560" width="100" height="40" as="geometry" />
        </mxCell>
        <mxCell id="tRDRYUQzHFQAWp7xfoaw-135" value="StartDate" style="ellipse;whiteSpace=wrap;html=1;align=center;" parent="1" vertex="1">
          <mxGeometry x="-760" y="620" width="90" height="40" as="geometry" />
        </mxCell>
        <mxCell id="tRDRYUQzHFQAWp7xfoaw-136" value="Loan_ID" style="ellipse;whiteSpace=wrap;html=1;align=center;" parent="1" vertex="1">
          <mxGeometry x="-760" y="740" width="100" height="40" as="geometry" />
        </mxCell>
        <mxCell id="tRDRYUQzHFQAWp7xfoaw-138" value="LastUpdateDate" style="ellipse;whiteSpace=wrap;html=1;align=center;" parent="1" vertex="1">
          <mxGeometry x="-870" y="740" width="100" height="40" as="geometry" />
        </mxCell>
        <mxCell id="tRDRYUQzHFQAWp7xfoaw-140" value="MonthsDuration" style="ellipse;whiteSpace=wrap;html=1;align=center;dashed=1;" parent="1" vertex="1">
          <mxGeometry x="-990" y="570" width="110" height="40" as="geometry" />
        </mxCell>
        <mxCell id="tRDRYUQzHFQAWp7xfoaw-141" value="LoadTypeID" style="ellipse;whiteSpace=wrap;html=1;align=center;" parent="1" vertex="1">
          <mxGeometry x="-870" y="570" width="100" height="40" as="geometry" />
        </mxCell>
        <mxCell id="tRDRYUQzHFQAWp7xfoaw-142" value="SupportTickets" style="whiteSpace=wrap;html=1;align=center;" parent="1" vertex="1">
          <mxGeometry x="450" y="1030" width="90" height="40" as="geometry" />
        </mxCell>
        <mxCell id="tRDRYUQzHFQAWp7xfoaw-143" value="LastUpdateDate" style="ellipse;whiteSpace=wrap;html=1;align=center;" parent="1" vertex="1">
          <mxGeometry x="330" y="1090" width="100" height="40" as="geometry" />
        </mxCell>
        <mxCell id="tRDRYUQzHFQAWp7xfoaw-144" value="CreatedDate" style="ellipse;whiteSpace=wrap;html=1;align=center;" parent="1" vertex="1">
          <mxGeometry x="330" y="1030" width="100" height="40" as="geometry" />
        </mxCell>
        <mxCell id="tRDRYUQzHFQAWp7xfoaw-145" value="Priority" style="ellipse;whiteSpace=wrap;html=1;align=center;" parent="1" vertex="1">
          <mxGeometry x="330" y="970" width="100" height="40" as="geometry" />
        </mxCell>
        <mxCell id="tRDRYUQzHFQAWp7xfoaw-146" value="Customer_ID" style="ellipse;whiteSpace=wrap;html=1;align=center;" parent="1" vertex="1">
          <mxGeometry x="550" y="1090" width="100" height="40" as="geometry" />
        </mxCell>
        <mxCell id="tRDRYUQzHFQAWp7xfoaw-147" value="Description" style="ellipse;whiteSpace=wrap;html=1;align=center;" parent="1" vertex="1">
          <mxGeometry x="550" y="1030" width="100" height="40" as="geometry" />
        </mxCell>
        <mxCell id="tRDRYUQzHFQAWp7xfoaw-148" value="Status" style="ellipse;whiteSpace=wrap;html=1;align=center;" parent="1" vertex="1">
          <mxGeometry x="440" y="970" width="100" height="40" as="geometry" />
        </mxCell>
        <mxCell id="tRDRYUQzHFQAWp7xfoaw-149" value="Subject" style="ellipse;whiteSpace=wrap;html=1;align=center;" parent="1" vertex="1">
          <mxGeometry x="550" y="970" width="100" height="40" as="geometry" />
        </mxCell>
        <mxCell id="tRDRYUQzHFQAWp7xfoaw-150" value="Ticket_ID" style="ellipse;whiteSpace=wrap;html=1;align=center;" parent="1" vertex="1">
          <mxGeometry x="550" y="1140" width="100" height="40" as="geometry" />
        </mxCell>
        <mxCell id="tRDRYUQzHFQAWp7xfoaw-152" value="" style="shape=singleArrow;direction=south;whiteSpace=wrap;html=1;rotation=-45;arrowWidth=0.5892556509887906;arrowSize=0.2464891243746003;" parent="1" vertex="1">
          <mxGeometry x="151.21" y="731.21" width="60" height="330" as="geometry" />
        </mxCell>
        <mxCell id="tRDRYUQzHFQAWp7xfoaw-153" value="" style="shape=singleArrow;direction=south;whiteSpace=wrap;html=1;rotation=-15;arrowWidth=0.5892556509887906;arrowSize=0.2464891243746003;" parent="1" vertex="1">
          <mxGeometry x="531.41" y="720.98" width="50" height="185" as="geometry" />
        </mxCell>
        <mxCell id="tRDRYUQzHFQAWp7xfoaw-154" value="User_ID" style="ellipse;whiteSpace=wrap;html=1;align=center;" parent="1" vertex="1">
          <mxGeometry x="440" y="1140" width="100" height="40" as="geometry" />
        </mxCell>
        <mxCell id="tRDRYUQzHFQAWp7xfoaw-155" value="ResponseMessage" style="ellipse;whiteSpace=wrap;html=1;align=center;" parent="1" vertex="1">
          <mxGeometry x="310" y="1140" width="120" height="40" as="geometry" />
        </mxCell>
        <mxCell id="tRDRYUQzHFQAWp7xfoaw-156" value="" style="shape=singleArrow;direction=south;whiteSpace=wrap;html=1;rotation=45;arrowWidth=0.5892556509887906;arrowSize=0.2464891243746003;" parent="1" vertex="1">
          <mxGeometry x="-284.14" y="831.2099999999999" width="34.14" height="230" as="geometry" />
        </mxCell>
        <mxCell id="tRDRYUQzHFQAWp7xfoaw-157" value="Payments" style="whiteSpace=wrap;html=1;align=center;" parent="1" vertex="1">
          <mxGeometry x="-540" y="1090" width="90" height="40" as="geometry" />
        </mxCell>
        <mxCell id="tRDRYUQzHFQAWp7xfoaw-159" value="CreatedDate" style="ellipse;whiteSpace=wrap;html=1;align=center;" parent="1" vertex="1">
          <mxGeometry x="-550" y="1030" width="100" height="40" as="geometry" />
        </mxCell>
        <mxCell id="tRDRYUQzHFQAWp7xfoaw-160" value="Amount" style="ellipse;whiteSpace=wrap;html=1;align=center;" parent="1" vertex="1">
          <mxGeometry x="-660" y="1030" width="100" height="40" as="geometry" />
        </mxCell>
        <mxCell id="tRDRYUQzHFQAWp7xfoaw-161" value="Account_ID" style="ellipse;whiteSpace=wrap;html=1;align=center;" parent="1" vertex="1">
          <mxGeometry x="-440" y="1150" width="100" height="40" as="geometry" />
        </mxCell>
        <mxCell id="tRDRYUQzHFQAWp7xfoaw-162" value="PaymentType" style="ellipse;whiteSpace=wrap;html=1;align=center;" parent="1" vertex="1">
          <mxGeometry x="-440" y="1090" width="100" height="40" as="geometry" />
        </mxCell>
        <mxCell id="tRDRYUQzHFQAWp7xfoaw-164" value="Transaction_ID&lt;br&gt;(if exists)" style="ellipse;whiteSpace=wrap;html=1;align=center;" parent="1" vertex="1">
          <mxGeometry x="-440" y="1030" width="110" height="40" as="geometry" />
        </mxCell>
        <mxCell id="tRDRYUQzHFQAWp7xfoaw-165" value="Payment_ID" style="ellipse;whiteSpace=wrap;html=1;align=center;" parent="1" vertex="1">
          <mxGeometry x="-440" y="1200" width="100" height="40" as="geometry" />
        </mxCell>
        <mxCell id="tRDRYUQzHFQAWp7xfoaw-170" value="Configiration" style="whiteSpace=wrap;html=1;align=center;" parent="1" vertex="1">
          <mxGeometry x="-1000" y="1450" width="90" height="40" as="geometry" />
        </mxCell>
        <mxCell id="tRDRYUQzHFQAWp7xfoaw-173" value="SettingName" style="ellipse;whiteSpace=wrap;html=1;align=center;" parent="1" vertex="1">
          <mxGeometry x="-900" y="1510" width="100" height="40" as="geometry" />
        </mxCell>
        <mxCell id="tRDRYUQzHFQAWp7xfoaw-174" value="SettingValue" style="ellipse;whiteSpace=wrap;html=1;align=center;" parent="1" vertex="1">
          <mxGeometry x="-900" y="1450" width="100" height="40" as="geometry" />
        </mxCell>
        <mxCell id="tRDRYUQzHFQAWp7xfoaw-175" value="Transaction_ID&lt;br&gt;(if exists)" style="ellipse;whiteSpace=wrap;html=1;align=center;" parent="1" vertex="1">
          <mxGeometry x="-900" y="1390" width="110" height="40" as="geometry" />
        </mxCell>
        <mxCell id="tRDRYUQzHFQAWp7xfoaw-176" value="Setting_ID" style="ellipse;whiteSpace=wrap;html=1;align=center;" parent="1" vertex="1">
          <mxGeometry x="-900" y="1560" width="100" height="40" as="geometry" />
        </mxCell>
        <mxCell id="icZTstMbrpMP6T4n5x5H-1" value="" style="shape=singleArrow;direction=south;whiteSpace=wrap;html=1;rotation=-45;" parent="1" vertex="1">
          <mxGeometry x="91.21000000000001" y="1290" width="60" height="100" as="geometry" />
        </mxCell>
        <mxCell id="icZTstMbrpMP6T4n5x5H-3" value="AccountTypes" style="whiteSpace=wrap;html=1;align=center;" parent="1" vertex="1">
          <mxGeometry x="250" y="1450" width="80" height="40" as="geometry" />
        </mxCell>
        <mxCell id="icZTstMbrpMP6T4n5x5H-6" value="OpenFees" style="ellipse;whiteSpace=wrap;html=1;align=center;" parent="1" vertex="1">
          <mxGeometry x="240" y="1390" width="100" height="40" as="geometry" />
        </mxCell>
        <mxCell id="icZTstMbrpMP6T4n5x5H-7" value="AccountTypeID" style="ellipse;whiteSpace=wrap;html=1;align=center;" parent="1" vertex="1">
          <mxGeometry x="350" y="1510" width="100" height="40" as="geometry" />
        </mxCell>
        <mxCell id="icZTstMbrpMP6T4n5x5H-8" value="AccountType" style="ellipse;whiteSpace=wrap;html=1;align=center;" parent="1" vertex="1">
          <mxGeometry x="350" y="1450" width="100" height="40" as="geometry" />
        </mxCell>
        <mxCell id="icZTstMbrpMP6T4n5x5H-10" value="Description" style="ellipse;whiteSpace=wrap;html=1;align=center;" parent="1" vertex="1">
          <mxGeometry x="350" y="1390" width="100" height="40" as="geometry" />
        </mxCell>
        <mxCell id="icZTstMbrpMP6T4n5x5H-11" value="" style="shape=singleArrow;direction=west;whiteSpace=wrap;html=1;" parent="1" vertex="1">
          <mxGeometry x="-1120" y="500" width="330" height="60" as="geometry" />
        </mxCell>
        <mxCell id="icZTstMbrpMP6T4n5x5H-12" value="LoanTypes" style="whiteSpace=wrap;html=1;align=center;" parent="1" vertex="1">
          <mxGeometry x="-1240" y="490" width="80" height="40" as="geometry" />
        </mxCell>
        <mxCell id="icZTstMbrpMP6T4n5x5H-13" value="MinimumBalance" style="ellipse;whiteSpace=wrap;html=1;align=center;" parent="1" vertex="1">
          <mxGeometry x="-1360" y="550" width="100" height="40" as="geometry" />
        </mxCell>
        <mxCell id="icZTstMbrpMP6T4n5x5H-14" value="LoanTypeName" style="ellipse;whiteSpace=wrap;html=1;align=center;" parent="1" vertex="1">
          <mxGeometry x="-1360" y="490" width="100" height="40" as="geometry" />
        </mxCell>
        <mxCell id="icZTstMbrpMP6T4n5x5H-15" value="MaxMonthsDuration" style="ellipse;whiteSpace=wrap;html=1;align=center;" parent="1" vertex="1">
          <mxGeometry x="-1360" y="440" width="141" height="40" as="geometry" />
        </mxCell>
        <mxCell id="icZTstMbrpMP6T4n5x5H-16" value="LoanTypeID" style="ellipse;whiteSpace=wrap;html=1;align=center;" parent="1" vertex="1">
          <mxGeometry x="-1250" y="550" width="100" height="40" as="geometry" />
        </mxCell>
        <mxCell id="icZTstMbrpMP6T4n5x5H-19" style="edgeStyle=orthogonalEdgeStyle;rounded=0;orthogonalLoop=1;jettySize=auto;html=1;entryX=0.567;entryY=-0.054;entryDx=0;entryDy=0;entryPerimeter=0;" parent="1" target="tRDRYUQzHFQAWp7xfoaw-141" edge="1">
          <mxGeometry relative="1" as="geometry">
            <mxPoint x="-780" y="530" as="sourcePoint" />
            <Array as="points">
              <mxPoint x="-813" y="530" />
            </Array>
          </mxGeometry>
        </mxCell>
        <mxCell id="icZTstMbrpMP6T4n5x5H-21" value="Guarantees" style="whiteSpace=wrap;html=1;align=center;" parent="1" vertex="1">
          <mxGeometry x="-1230" y="710" width="80" height="40" as="geometry" />
        </mxCell>
        <mxCell id="icZTstMbrpMP6T4n5x5H-22" value="GuaranteDescription" style="ellipse;whiteSpace=wrap;html=1;align=center;" parent="1" vertex="1">
          <mxGeometry x="-1370" y="770" width="120" height="40" as="geometry" />
        </mxCell>
        <mxCell id="icZTstMbrpMP6T4n5x5H-23" value="LoanID" style="ellipse;whiteSpace=wrap;html=1;align=center;" parent="1" vertex="1">
          <mxGeometry x="-1360" y="710" width="100" height="40" as="geometry" />
        </mxCell>
        <mxCell id="icZTstMbrpMP6T4n5x5H-24" value="EstimatedValue" style="ellipse;whiteSpace=wrap;html=1;align=center;" parent="1" vertex="1">
          <mxGeometry x="-1360" y="660" width="100" height="40" as="geometry" />
        </mxCell>
        <mxCell id="icZTstMbrpMP6T4n5x5H-25" value="GuaranteID" style="ellipse;whiteSpace=wrap;html=1;align=center;" parent="1" vertex="1">
          <mxGeometry x="-1230" y="770" width="100" height="40" as="geometry" />
        </mxCell>
        <mxCell id="icZTstMbrpMP6T4n5x5H-27" value="" style="shape=singleArrow;direction=west;whiteSpace=wrap;html=1;" parent="1" vertex="1">
          <mxGeometry x="-1100" y="731.21" width="110" height="45" as="geometry" />
        </mxCell>
        <mxCell id="icZTstMbrpMP6T4n5x5H-29" value="CustomerName" style="ellipse;whiteSpace=wrap;html=1;align=center;" parent="1" vertex="1">
          <mxGeometry x="-250" y="731.21" width="100" height="40" as="geometry" />
        </mxCell>
        <mxCell id="icZTstMbrpMP6T4n5x5H-30" value="Password" style="ellipse;whiteSpace=wrap;html=1;align=center;" parent="1" vertex="1">
          <mxGeometry x="-250" y="776.21" width="100" height="40" as="geometry" />
        </mxCell>
        <mxCell id="icZTstMbrpMP6T4n5x5H-31" value="&lt;font style=&quot;font-size: 40px;&quot;&gt;&lt;b&gt;CHECK RELATIONAL SCHEMA FOR MORE DETAILS.&lt;/b&gt;&lt;/font&gt;" style="text;html=1;align=center;verticalAlign=middle;resizable=0;points=[];autosize=1;strokeColor=none;fillColor=none;" parent="1" vertex="1">
          <mxGeometry x="-630" y="1950" width="1030" height="60" as="geometry" />
        </mxCell>
        <mxCell id="64Qe_V6iNIaDqHih5QBf-1" value="AccountID" style="ellipse;whiteSpace=wrap;html=1;align=center;" vertex="1" parent="1">
          <mxGeometry x="-240" y="1290" width="100" height="40" as="geometry" />
        </mxCell>
        <mxCell id="64Qe_V6iNIaDqHih5QBf-2" value="Description" style="ellipse;whiteSpace=wrap;html=1;align=center;" vertex="1" parent="1">
          <mxGeometry x="-660" y="1090" width="100" height="40" as="geometry" />
        </mxCell>
        <mxCell id="64Qe_V6iNIaDqHih5QBf-3" value="GuaranteID" style="ellipse;whiteSpace=wrap;html=1;align=center;" vertex="1" parent="1">
          <mxGeometry x="-980" y="790" width="100" height="40" as="geometry" />
        </mxCell>
        <mxCell id="64Qe_V6iNIaDqHih5QBf-4" value="GuaranteItem" style="ellipse;whiteSpace=wrap;html=1;align=center;" vertex="1" parent="1">
          <mxGeometry x="-1250" y="650" width="120" height="40" as="geometry" />
        </mxCell>
      </root>
    </mxGraphModel>
  </diagram>
</mxfile>
